<svg width="40" height="40" viewBox="0 0 40 40" fill="none" xmlns="http://www.w3.org/2000/svg">
<g id="chat">
<path id="Combined Shape" d="M14.7065 30.9801L14.9651 30.0141C14.729 29.9509 14.4779 29.9764 14.2592 30.0857L14.7065 30.9801ZM6.66665 35L5.6767 34.8586C5.6241 35.2268 5.7802 35.5938 6.08194 35.8112C6.38367 36.0287 6.78118 36.0608 7.11386 35.8944L6.66665 35ZM7.75536 27.379L8.74531 27.5204C8.79341 27.1837 8.66708 26.8457 8.40996 26.623L7.75536 27.379ZM20 32.6667C29.5372 32.6667 37.6666 26.4461 37.6666 18.3333H35.6666C35.6666 24.9481 28.8722 30.6667 20 30.6667V32.6667ZM14.4478 31.9461C16.1958 32.4141 18.0627 32.6667 20 32.6667V30.6667C18.2364 30.6667 16.5433 30.4367 14.9651 30.0141L14.4478 31.9461ZM7.11386 35.8944L15.1537 31.8745L14.2592 30.0857L6.21943 34.1056L7.11386 35.8944ZM6.76541 27.2376L5.6767 34.8586L7.6566 35.1414L8.74531 27.5204L6.76541 27.2376ZM2.33331 18.3333C2.33331 22.1629 4.17589 25.6023 7.10076 28.135L8.40996 26.623C5.84505 24.402 4.33331 21.4859 4.33331 18.3333H2.33331ZM20 4C10.4627 4 2.33331 10.2206 2.33331 18.3333H4.33331C4.33331 11.7185 11.1278 6 20 6V4ZM37.6666 18.3333C37.6666 10.2206 29.5372 4 20 4V6C28.8722 6 35.6666 11.7185 35.6666 18.3333H37.6666Z" fill="white"/>
</g>
</svg>
